# File produced by Open Asset Import Library (http://www.assimp.sf.net)
# (assimp v5.4.0)

mtllib cylinder.mtl

# 16 vertex positions
v 0 -0.522867918 -0.461443424
v 0 0.522867918 -0.461443424
v 0.326289773 0.522867918 -0.326289773
v 0.326289773 -0.522867918 -0.326289773
v 0.461443424 0.522867918 0
v 0.461443424 -0.522867918 0
v 0.326289773 0.522867918 0.326289773
v 0.326289773 -0.522867918 0.326289773
v 0 0.522867918 0.461443424
v 0 -0.522867918 0.461443424
v -0.326289773 0.522867918 0.326289773
v -0.326289773 -0.522867918 0.326289773
v -0.461443424 0.522867918 0
v -0.461443424 -0.522867918 0
v -0.326289773 0.522867918 -0.326289773
v -0.326289773 -0.522867918 -0.326289773

# 34 UV coordinates
vt 1 0.5 0
vt 1 1 0
vt 0.875 1 0
vt 0.875 0.5 0
vt 0.75 1 0
vt 0.75 0.5 0
vt 0.625 1 0
vt 0.625 0.5 0
vt 0.5 1 0
vt 0.5 0.5 0
vt 0.375 1 0
vt 0.375 0.5 0
vt 0.25 1 0
vt 0.25 0.5 0
vt 0.49000001 0.25 0
vt 0.419705629 0.419705629 0
vt 0.25 0.49000001 0
vt 0.25 0.00999999046 0
vt 0.419705629 0.0802943707 0
vt 0.00999997556 0.25 0
vt 0.0802943707 0.419705629 0
vt 0.0802943707 0.0802943707 0
vt 0.125 1 0
vt 0.125 0.5 0
vt 0 1 0
vt 0 0.5 0
vt 0.580294371 0.419705629 0
vt 0.75 0.49000001 0
vt 0.919705629 0.419705629 0
vt 0.580294371 0.0802943707 0
vt 0.50999999 0.25 0
vt 0.919705629 0.0802943707 0
vt 0.99000001 0.25 0
vt 0.75 0.00999999046 0

# 10 vertex normals
vn 0.38269031 0 -0.923876643
vn 0.923876643 0 -0.38269031
vn 0.923876643 0 0.38269031
vn 0.38269031 0 0.923876643
vn -0.38269031 0 0.923876643
vn -0.923876643 0 0.38269031
vn 0 1 0
vn -0.923876643 0 -0.38269031
vn -0.38269031 0 -0.923876643
vn 0 -1 0

# Mesh 'meshes[0]' with 28 faces
g meshes[0]
usemtl Mat_1
f  1/1/1 2/2/1 3/3/1
f  1/1/1 3/3/1 4/4/1
f  4/4/2 3/3/2 5/5/2
f  4/4/2 5/5/2 6/6/2
f  6/6/3 5/5/3 7/7/3
f  6/6/3 7/7/3 8/8/3
f  8/8/4 7/7/4 9/9/4
f  8/8/4 9/9/4 10/10/4
f  10/10/5 9/9/5 11/11/5
f  10/10/5 11/11/5 12/12/5
f  12/12/6 11/11/6 13/13/6
f  12/12/6 13/13/6 14/14/6
f  5/15/7 3/16/7 2/17/7
f  9/18/7 7/19/7 5/15/7
f  5/15/7 2/17/7 13/20/7
f  13/20/7 9/18/7 5/15/7
f  2/17/7 15/21/7 13/20/7
f  13/20/7 11/22/7 9/18/7
f  14/14/8 13/13/8 15/23/8
f  14/14/8 15/23/8 16/24/8
f  16/24/9 15/23/9 2/25/9
f  16/24/9 2/25/9 1/26/9
f  16/27/10 1/28/10 4/29/10
f  12/30/10 14/31/10 16/27/10
f  16/27/10 4/29/10 8/32/10
f  8/32/10 12/30/10 16/27/10
f  4/29/10 6/33/10 8/32/10
f  8/32/10 10/34/10 12/30/10

