# Blender 4.4.3
# www.blender.org
mtllib test.mtl
o Plane
v 0.000000 0.089412 0.066922
v 0.000000 0.021705 0.008367
v 0.000000 0.083439 0.042837
v 0.000000 0.027135 -0.000695
v 0.000000 0.063096 0.056171
v 0.000000 0.065714 0.019284
v 0.000000 0.034047 0.036014
v 0.000000 0.048491 0.007020
vn -1.0000 -0.0000 -0.0000
vt 0.000000 0.000000
vt 0.000000 1.000000
vt 0.201668 1.000000
vt 0.194573 0.000000
vt 0.560046 1.000000
vt 0.637870 0.000000
vt 1.000000 1.000000
vt 1.000000 0.000000
s 1
f 1/1/1 3/2/1 6/3/1 5/4/1
f 6/3/1 8/5/1 7/6/1 5/4/1
f 8/5/1 4/7/1 2/8/1 7/6/1
o Plane.001
v 0.000000 0.054133 -0.040863
v 0.000000 0.000908 -0.009534
v 0.000000 0.070012 -0.079067
v 0.000000 0.001337 -0.022848
v 0.000000 0.030669 -0.016830
v 0.000000 0.014072 -0.008247
v 0.000000 0.010210 -0.040014
v 0.000000 0.031099 -0.063618
vn -1.0000 -0.0000 -0.0000
vt 0.666667 0.000000
vt 0.666667 1.000000
vt 1.000000 1.000000
vt 1.000000 0.000000
vt 0.000000 0.000000
vt 0.000000 1.000000
vt 0.333333 1.000000
vt 0.333333 0.000000
s 1
f 14/9/2 15/10/2 12/11/2 10/12/2
f 9/13/2 11/14/2 16/15/2 13/16/2
f 13/16/2 16/15/2 15/10/2 14/9/2
o Plane.002
v 0.000000 0.106875 -0.028367
v 0.000000 0.053693 0.000677
v 0.000000 0.107085 -0.051934
v 0.000000 0.035430 -0.010992
v 0.000000 0.098680 -0.011669
v 0.000000 0.080452 0.000426
v 0.000000 0.052900 -0.024916
v 0.000000 0.080083 -0.029617
vn -1.0000 -0.0000 -0.0000
vt 0.666667 0.000000
vt 0.666667 0.600378
vt 0.878123 0.469038
vt 1.000000 0.000000
vt 0.094276 0.239949
vt 0.140431 0.912303
vt 0.486878 0.695953
vt 0.333333 0.000000
s 1
f 22/17/3 23/18/3 20/19/3 18/20/3
f 17/21/3 19/22/3 24/23/3 21/24/3
f 21/24/3 24/23/3 23/18/3 22/17/3
