# File produced by Open Asset Import Library (http://www.assimp.sf.net)
# (assimp v5.4.0)

mtllib icosphere.mtl

# 12 vertex positions
v 0 -0.48197031 0
v 0.348753691 -0.215544343 0.253381431
v -0.133209363 -0.215544343 0.409983218
v 0.348753691 -0.215544343 -0.253381431
v -0.431086272 -0.215544343 0
v -0.133209363 -0.215544343 -0.409983218
v 0.431086272 0.215544343 0
v 0.133209363 0.215544343 0.409983218
v -0.348753691 0.215544343 0.253381431
v -0.348753691 0.215544343 -0.253381431
v 0.133209363 0.215544343 -0.409983218
v 0 0.48197031 0

# 22 UV coordinates
vt 0.181819007 0 0
vt 0.272727996 0.157460988 0
vt 0.0909100026 0.157460988 0
vt 0.363637 0 0
vt 0.454546005 0.157460988 0
vt 0.909090996 0 0
vt 1 0.157460988 0
vt 0.818181992 0.157460988 0
vt 0.727272987 0 0
vt 0.636363983 0.157460988 0
vt 0.545454979 0 0
vt 0.363637 0.314921021 0
vt 0.181819007 0.314921021 0
vt 0.909090996 0.314921021 0
vt 0.727272987 0.314921021 0
vt 0.545454979 0.314921021 0
vt 0 0.314921021 0
vt 0.272727996 0.472382009 0
vt 0.0909100026 0.472382009 0
vt 0.818181992 0.472382009 0
vt 0.636363983 0.472382009 0
vt 0.454546005 0.472382009 0

# 20 vertex normals
vn 0.187587574 -0.794647336 0.577361763
vn 0.607064068 -0.794652939 0
vn -0.491091758 -0.794686675 0.356794
vn -0.491091758 -0.794686675 -0.356794
vn 0.187587574 -0.794647336 -0.577361763
vn 0.982243955 -0.187608391 0
vn 0.303494602 -0.187596664 0.934183419
vn -0.7946105 -0.187602475 0.577407658
vn -0.7946105 -0.187602475 -0.577407658
vn 0.303494602 -0.187596664 -0.934183419
vn 0.7946105 0.187602475 0.577407658
vn -0.303494602 0.187596664 0.934183419
vn -0.982243955 0.187608391 0
vn -0.303494602 0.187596664 -0.934183419
vn 0.7946105 0.187602475 -0.577407658
vn 0.491091758 0.794686675 0.356794
vn -0.187587574 0.794647336 0.577361763
vn -0.607064068 0.794652939 0
vn -0.187587574 0.794647336 -0.577361763
vn 0.491091758 0.794686675 -0.356794

# Mesh 'meshes[0]' with 20 faces
g meshes[0]
usemtl Mat_1
f  1/1/1 2/2/1 3/3/1
f  2/2/2 1/4/2 4/5/2
f  1/6/3 3/7/3 5/8/3
f  1/9/4 5/8/4 6/10/4
f  1/11/5 6/10/5 4/5/5
f  2/2/6 4/5/6 7/12/6
f  3/3/7 2/2/7 8/13/7
f  5/8/8 3/7/8 9/14/8
f  6/10/9 5/8/9 10/15/9
f  4/5/10 6/10/10 11/16/10
f  2/2/11 7/12/11 8/13/11
f  3/3/12 8/13/12 9/17/12
f  5/8/13 9/14/13 10/15/13
f  6/10/14 10/15/14 11/16/14
f  4/5/15 11/16/15 7/12/15
f  8/13/16 7/12/16 12/18/16
f  9/17/17 8/13/17 12/19/17
f  10/15/18 9/14/18 12/20/18
f  11/16/19 10/15/19 12/21/19
f  7/12/20 11/16/20 12/22/20

