# Blender 4.4.3
# www.blender.org
mtllib ruin_pillar.mtl
o Cube
v -1.000000 0.800670 1.000000
v -1.000000 0.800670 -1.000000
v 1.000000 0.800670 1.000000
v 1.000000 0.800670 -1.000000
v -1.313712 0.357152 1.313712
v -1.313712 0.357152 -1.313712
v 1.313712 0.357152 1.313712
v 1.313712 0.357152 -1.313712
v -1.313712 -0.668547 1.313712
v -1.313712 -0.668547 -1.313712
v 1.313712 -0.668547 1.313712
v 1.313712 -0.668547 -1.313712
v -1.000000 0.800670 -0.333333
v -1.000000 0.800670 0.333333
v -1.000000 3.299053 1.000000
v -1.000000 3.299053 -1.000000
v 0.333333 0.800670 -1.000000
v -0.333333 0.800670 -1.000000
v 1.000000 0.800670 0.333333
v 1.000000 0.800670 -0.333333
v -0.333333 0.800670 1.000000
v 0.333333 0.800670 1.000000
v -1.313712 0.357152 -0.437904
v -1.313712 0.357152 0.437904
v 0.437904 0.357152 -1.313712
v -0.437904 0.357152 -1.313712
v 1.313712 0.357152 0.437904
v 1.313712 0.357152 -0.437904
v -0.437904 0.357152 1.313712
v 0.437904 0.357152 1.313712
v -1.104571 0.652831 -1.104571
v -1.209141 0.504991 -1.209141
v -1.209141 0.504991 1.209141
v -1.104571 0.652831 1.104571
v 1.104571 0.652831 1.104571
v 1.209141 0.504991 1.209141
v 1.209141 0.504991 -1.209141
v 1.104571 0.652831 -1.104571
v -1.313712 -0.668547 -0.437904
v -1.313712 -0.668547 0.437904
v 0.437904 -0.668547 -1.313712
v -0.437904 -0.668547 -1.313712
v 1.313712 -0.668547 0.437904
v 1.313712 -0.668547 -0.437904
v -0.437904 -0.668547 1.313712
v 0.437904 -0.668547 1.313712
v 1.313712 0.015252 -1.313712
v 1.313712 -0.326648 -1.313712
v -1.313712 -0.326648 -1.313712
v -1.313712 0.015252 -1.313712
v 1.313712 0.015252 1.313712
v 1.313712 -0.326648 1.313712
v -1.313712 -0.326648 1.313712
v -1.313712 0.015252 1.313712
v 0.437904 0.015252 1.313712
v 0.437904 -0.326648 1.313712
v -0.437904 0.015252 1.313712
v -0.437904 -0.326648 1.313712
v -1.313712 0.015252 0.437904
v -1.313712 -0.326648 0.437904
v -1.313712 0.015252 -0.437904
v -1.313712 -0.326648 -0.437904
v 1.313712 0.015252 -0.437904
v 1.313712 -0.326648 -0.437904
v 1.313712 0.015252 0.437904
v 1.313712 -0.326648 0.437904
v -0.437904 -0.668547 -0.437904
v -0.437904 -0.668547 0.437904
v 0.437904 -0.668547 -0.437904
v 0.437904 -0.668547 0.437904
v -0.368190 0.652831 -1.104571
v -0.403047 0.504991 -1.209141
v 0.368190 0.652831 -1.104571
v 0.403047 0.504991 -1.209141
v 0.368190 0.652831 1.104571
v 0.403047 0.504991 1.209141
v -0.368190 0.652831 1.104571
v -0.403047 0.504991 1.209141
v 1.104571 0.652831 -0.368190
v 1.209141 0.504991 -0.403047
v 1.104571 0.652831 0.368190
v 1.209141 0.504991 0.403047
v -0.437904 0.015252 -1.313712
v -0.437904 -0.326648 -1.313712
v 0.437904 0.015252 -1.313712
v 0.437904 -0.326648 -1.313712
v -1.104571 0.652831 0.368190
v -1.209141 0.504991 0.403047
v -1.104571 0.652831 -0.368190
v -1.209141 0.504991 -0.403047
v 0.333333 3.299053 1.000000
v -0.333333 3.299053 1.000000
v -0.333333 3.299053 -1.000000
v -1.000000 3.299053 0.333333
v -1.000000 3.299053 -0.333333
v 1.000000 2.843250 1.000000
v 0.333333 3.459080 1.000000
v -0.333333 3.786324 1.000000
v 1.000000 2.831120 -1.000000
v -1.000000 3.588693 -1.000000
v 1.000000 2.839206 0.333333
v 1.000000 2.835163 -0.333333
v 0.333333 3.083644 -1.000000
v -1.000000 4.165613 0.333333
v -1.000000 4.690741 1.000000
v -0.333333 3.336169 -1.000000
v -1.000000 3.746772 -0.333333
v -0.235347 3.299053 -1.000000
v 0.506570 3.299053 1.000000
v 0.324706 3.467049 1.000000
v 0.327452 3.001096 0.333333
v -0.333333 3.824365 -0.333333
v -0.333333 3.559219 0.333333
v 0.106957 3.245428 -0.333333
v 0.330325 3.374989 -0.333333
vn -0.8164 0.5775 -0.0000
vn -0.0000 -0.0000 -1.0000
vn 0.8164 0.5775 -0.0000
vn -0.0000 0.5775 0.8164
vn -0.0000 0.5775 -0.8164
vn -0.0000 -1.0000 -0.0000
vn 1.0000 -0.0000 -0.0000
vn -1.0000 -0.0000 -0.0000
vn -0.0000 -0.0000 1.0000
vn 0.1172 0.8937 -0.4332
vn 0.6973 0.6093 -0.3776
vn 0.1056 0.9740 -0.2005
vn 0.5011 0.8451 -0.1861
vn 0.4498 0.8604 0.2396
vn 0.4527 0.8546 -0.2544
vn 0.6043 0.6542 -0.4548
vn 0.5086 0.7644 -0.3963
vn 0.7024 0.6199 -0.3497
vn 0.3666 0.9243 -0.1065
vn 0.7107 0.6883 0.1455
vn -0.4518 0.7789 0.4349
vt 0.375000 0.166667
vt 0.375000 0.250000
vt 0.375000 0.416667
vt 0.375000 0.500000
vt 0.375000 0.666667
vt 0.375000 0.750000
vt 0.375000 0.916667
vt 0.375000 1.000000
vt 0.291667 0.666667
vt 0.291667 0.750000
vt 0.375000 0.833333
vt 0.375000 0.000000
vt 0.375000 0.083333
vt 0.375000 0.583333
vt 0.125000 0.666667
vt 0.208333 0.666667
vt 0.208333 0.750000
vt 0.125000 0.750000
vt 0.125000 0.500000
vt 0.208333 0.500000
vt 0.208333 0.583333
vt 0.125000 0.583333
vt 0.291667 0.500000
vt 0.291667 0.583333
vt 0.375000 0.333333
vt 0.458333 0.916667
vt 0.458333 1.000000
vt 0.484212 0.916667
vt 0.504753 1.000000
vt 0.443130 0.750000
vt 0.458333 0.811679
vt 0.458333 0.833333
vt 0.463671 0.833333
vt 0.463937 0.834412
vt 0.442995 0.666667
vt 0.442725 0.500000
vt 0.442860 0.583333
vt 0.451148 0.416667
vt 0.458333 0.250000
vt 0.458333 0.333333
vt 0.458333 0.345582
vt 0.467994 0.250000
vt 0.459571 0.333333
vt 0.458333 0.166667
vt 0.480247 0.166667
vt 0.458333 0.000000
vt 0.458333 0.083333
vt 0.504753 0.000000
vt 0.492500 0.083333
vt 0.467240 0.379528
vt 0.459250 0.464227
vt 0.455242 0.497804
vt 0.459211 0.615742
vt 0.475739 0.478325
s 0
f 90/1/1 32/2/1 6/2/1 23/1/1
f 86/3/2 48/4/2 12/4/2 41/3/2
f 82/5/3 36/6/3 7/6/3 27/5/3
f 78/7/4 33/8/4 5/8/4 29/7/4
f 74/3/5 37/4/5 8/4/5 25/3/5
f 70/9/6 43/5/6 11/6/6 46/10/6
f 66/5/7 52/6/7 11/6/7 43/5/7
f 62/1/8 49/2/8 10/2/8 39/1/8
f 58/7/9 53/8/9 9/8/9 45/7/9
f 52/6/9 56/11/9 46/11/9 11/6/9
f 56/11/9 58/7/9 45/7/9 46/11/9
f 7/6/9 30/11/9 55/11/9 51/6/9
f 51/6/9 55/11/9 56/11/9 52/6/9
f 30/11/9 29/7/9 57/7/9 55/11/9
f 55/11/9 57/7/9 58/7/9 56/11/9
f 29/7/9 5/8/9 54/8/9 57/7/9
f 57/7/9 54/8/9 53/8/9 58/7/9
f 53/12/8 60/13/8 40/13/8 9/12/8
f 60/13/8 62/1/8 39/1/8 40/13/8
f 5/12/8 24/13/8 59/13/8 54/12/8
f 54/12/8 59/13/8 60/13/8 53/12/8
f 24/13/8 23/1/8 61/1/8 59/13/8
f 59/13/8 61/1/8 62/1/8 60/13/8
f 23/1/8 6/2/8 50/2/8 61/1/8
f 61/1/8 50/2/8 49/2/8 62/1/8
f 48/4/7 64/14/7 44/14/7 12/4/7
f 64/14/7 66/5/7 43/5/7 44/14/7
f 8/4/7 28/14/7 63/14/7 47/4/7
f 47/4/7 63/14/7 64/14/7 48/4/7
f 28/14/7 27/5/7 65/5/7 63/14/7
f 63/14/7 65/5/7 66/5/7 64/14/7
f 27/5/7 7/6/7 51/6/7 65/5/7
f 65/5/7 51/6/7 52/6/7 66/5/7
f 40/15/6 68/16/6 45/17/6 9/18/6
f 68/16/6 70/9/6 46/10/6 45/17/6
f 10/19/6 42/20/6 67/21/6 39/22/6
f 39/22/6 67/21/6 68/16/6 40/15/6
f 42/20/6 41/23/6 69/24/6 67/21/6
f 67/21/6 69/24/6 70/9/6 68/16/6
f 41/23/6 12/4/6 44/14/6 69/24/6
f 69/24/6 44/14/6 43/5/6 70/9/6
f 32/2/5 72/25/5 26/25/5 6/2/5
f 72/25/5 74/3/5 25/3/5 26/25/5
f 2/2/5 18/25/5 71/25/5 31/2/5
f 31/2/5 71/25/5 72/25/5 32/2/5
f 18/25/5 17/3/5 73/3/5 71/25/5
f 71/25/5 73/3/5 74/3/5 72/25/5
f 17/3/5 4/4/5 38/4/5 73/3/5
f 73/3/5 38/4/5 37/4/5 74/3/5
f 36/6/4 76/11/4 30/11/4 7/6/4
f 76/11/4 78/7/4 29/7/4 30/11/4
f 3/6/4 22/11/4 75/11/4 35/6/4
f 35/6/4 75/11/4 76/11/4 36/6/4
f 22/11/4 21/7/4 77/7/4 75/11/4
f 75/11/4 77/7/4 78/7/4 76/11/4
f 21/7/4 1/8/4 34/8/4 77/7/4
f 77/7/4 34/8/4 33/8/4 78/7/4
f 37/4/3 80/14/3 28/14/3 8/4/3
f 80/14/3 82/5/3 27/5/3 28/14/3
f 4/4/3 20/14/3 79/14/3 38/4/3
f 38/4/3 79/14/3 80/14/3 37/4/3
f 20/14/3 19/5/3 81/5/3 79/14/3
f 79/14/3 81/5/3 82/5/3 80/14/3
f 19/5/3 3/6/3 35/6/3 81/5/3
f 81/5/3 35/6/3 36/6/3 82/5/3
f 49/2/2 84/25/2 42/25/2 10/2/2
f 84/25/2 86/3/2 41/3/2 42/25/2
f 6/2/2 26/25/2 83/25/2 50/2/2
f 50/2/2 83/25/2 84/25/2 49/2/2
f 26/25/2 25/3/2 85/3/2 83/25/2
f 83/25/2 85/3/2 86/3/2 84/25/2
f 25/3/2 8/4/2 47/4/2 85/3/2
f 85/3/2 47/4/2 48/4/2 86/3/2
f 33/12/1 88/13/1 24/13/1 5/12/1
f 88/13/1 90/1/1 23/1/1 24/13/1
f 1/12/1 14/13/1 87/13/1 34/12/1
f 34/12/1 87/13/1 88/13/1 33/12/1
f 14/13/1 13/1/1 89/1/1 87/13/1
f 87/13/1 89/1/1 90/1/1 88/13/1
f 13/1/1 2/2/1 31/2/1 89/1/1
f 89/1/1 31/2/1 32/2/1 90/1/1
f 21/7/9 92/26/9 15/27/9 1/8/9
f 92/26/9 98/28/9 105/29/9 15/27/9
f 3/6/9 96/30/9 109/31/9 91/32/9 22/11/9
f 22/11/9 91/32/9 92/26/9 21/7/9
f 91/32/9 97/33/9 110/34/9 98/28/9 92/26/9
f 19/5/7 101/35/7 96/30/7 3/6/7
f 4/4/7 99/36/7 102/37/7 20/14/7
f 20/14/7 102/37/7 101/35/7 19/5/7
f 17/3/2 103/38/2 99/36/2 4/4/2
f 2/2/2 16/39/2 93/40/2 18/25/2
f 18/25/2 93/40/2 108/41/2 103/38/2 17/3/2
f 16/39/2 100/42/2 106/43/2 93/40/2
f 93/40/2 106/43/2 108/41/2
f 13/1/8 95/44/8 16/39/8 2/2/8
f 95/44/8 107/45/8 100/42/8 16/39/8
f 1/12/8 15/46/8 94/47/8 14/13/8
f 14/13/8 94/47/8 95/44/8 13/1/8
f 15/46/8 105/48/8 104/49/8 94/47/8
f 94/47/8 104/49/8 107/45/8 95/44/8
f 109/31/9 97/33/9 91/32/9
f 100/42/10 107/45/10 112/50/10 106/43/10
f 106/43/11 112/50/11 114/51/11 108/41/11
f 108/41/12 114/51/12 115/52/12 103/38/12
f 103/38/13 115/52/13 102/37/13 99/36/13
f 102/37/14 115/52/14 111/53/14 101/35/14
f 101/35/15 111/53/15 109/31/15 96/30/15
f 109/31/16 111/53/16 110/34/16 97/33/16
f 110/34/17 111/53/17 113/54/17 98/28/17
f 98/28/18 113/54/18 104/49/18 105/48/18
f 104/49/19 113/54/19 112/50/19 107/45/19
f 113/54/20 111/53/20 114/51/20 112/50/20
f 111/53/21 115/52/21 114/51/21
